<mxfile host="app.diagrams.net" modified="2024-02-05T01:57:41.409Z" agent="Mozilla/5.0 (Windows NT 10.0; Win64; x64) AppleWebKit/537.36 (KHTML, like Gecko) Chrome/121.0.0.0 Safari/537.36" etag="KgmFQBaHzgZQ3fIlTU0b" version="23.1.1" type="github">
  <diagram name="第 1 页" id="FYaY93_kECnBv3qDTOOK">
    <mxGraphModel dx="1354" dy="661" grid="1" gridSize="10" guides="1" tooltips="1" connect="1" arrows="1" fold="1" page="1" pageScale="1" pageWidth="827" pageHeight="1169" math="0" shadow="0">
      <root>
        <mxCell id="0" />
        <mxCell id="1" parent="0" />
        <mxCell id="-Rb-8ywxMS3bpJXiGhbe-6" value="" style="rounded=0;whiteSpace=wrap;html=1;" vertex="1" parent="1">
          <mxGeometry x="160" y="680" width="600" height="120" as="geometry" />
        </mxCell>
        <mxCell id="-Rb-8ywxMS3bpJXiGhbe-7" value="磐石" style="rounded=0;whiteSpace=wrap;html=1;" vertex="1" parent="1">
          <mxGeometry x="120" y="680" width="40" height="120" as="geometry" />
        </mxCell>
        <mxCell id="-Rb-8ywxMS3bpJXiGhbe-8" value="" style="rounded=0;whiteSpace=wrap;html=1;" vertex="1" parent="1">
          <mxGeometry x="160" y="574" width="600" height="66" as="geometry" />
        </mxCell>
        <mxCell id="-Rb-8ywxMS3bpJXiGhbe-9" value="集成" style="rounded=0;whiteSpace=wrap;html=1;" vertex="1" parent="1">
          <mxGeometry x="120" y="574" width="40" height="66" as="geometry" />
        </mxCell>
        <mxCell id="-Rb-8ywxMS3bpJXiGhbe-11" value="" style="rounded=0;whiteSpace=wrap;html=1;" vertex="1" parent="1">
          <mxGeometry x="120" y="440" width="640" height="100" as="geometry" />
        </mxCell>
        <mxCell id="-Rb-8ywxMS3bpJXiGhbe-12" value="生态" style="rounded=0;whiteSpace=wrap;html=1;" vertex="1" parent="1">
          <mxGeometry x="120" y="440" width="40" height="100" as="geometry" />
        </mxCell>
        <mxCell id="-Rb-8ywxMS3bpJXiGhbe-13" value="" style="rounded=0;whiteSpace=wrap;html=1;" vertex="1" parent="1">
          <mxGeometry x="160" y="340" width="600" height="60" as="geometry" />
        </mxCell>
        <mxCell id="-Rb-8ywxMS3bpJXiGhbe-14" value="应用" style="rounded=0;whiteSpace=wrap;html=1;" vertex="1" parent="1">
          <mxGeometry x="120" y="340" width="40" height="60" as="geometry" />
        </mxCell>
        <mxCell id="-Rb-8ywxMS3bpJXiGhbe-15" value="" style="rounded=0;whiteSpace=wrap;html=1;" vertex="1" parent="1">
          <mxGeometry x="490" y="680" width="270" height="120" as="geometry" />
        </mxCell>
        <mxCell id="-Rb-8ywxMS3bpJXiGhbe-16" value="可视化引擎" style="text;html=1;strokeColor=none;fillColor=none;align=center;verticalAlign=middle;whiteSpace=wrap;rounded=0;" vertex="1" parent="1">
          <mxGeometry x="490" y="680" width="60" height="120" as="geometry" />
        </mxCell>
        <mxCell id="-Rb-8ywxMS3bpJXiGhbe-17" value="Zebras" style="text;html=1;strokeColor=none;fillColor=none;align=center;verticalAlign=middle;whiteSpace=wrap;rounded=0;" vertex="1" parent="1">
          <mxGeometry x="290" y="725" width="60" height="30" as="geometry" />
        </mxCell>
        <mxCell id="-Rb-8ywxMS3bpJXiGhbe-18" value="" style="rounded=0;whiteSpace=wrap;html=1;" vertex="1" parent="1">
          <mxGeometry x="640" y="680" width="120" height="120" as="geometry" />
        </mxCell>
        <mxCell id="-Rb-8ywxMS3bpJXiGhbe-19" value="表单设计器&lt;br&gt;表格设计器&lt;br&gt;流程设计器&lt;br&gt;大屏设计器&lt;br&gt;页面设计器&lt;br&gt;报表设计器" style="text;html=1;strokeColor=none;fillColor=none;align=center;verticalAlign=middle;whiteSpace=wrap;rounded=0;" vertex="1" parent="1">
          <mxGeometry x="655" y="690" width="90" height="100" as="geometry" />
        </mxCell>
      </root>
    </mxGraphModel>
  </diagram>
</mxfile>
